<svg width="68" height="79" viewBox="0 0 68 79" fill="none" xmlns="http://www.w3.org/2000/svg">
<path d="M66.2243 60.7103L20.4333 77.262H14.5621L66.2243 54.2835V60.7103ZM66.2243 69.4777L30.5783 77.262H25.4675L66.2243 62.5296V69.4777ZM66.2243 77.262H38.5996L66.2243 71.2297V77.262ZM1.70202 77.262V11.1653H11.2191C8.28635 12.1992 6.20709 14.7439 6.20709 17.7124C6.20709 18.5064 6.35601 19.2697 6.62952 19.9821L18.3275 73.7143L10.3513 77.262H1.70202ZM21.571 11.1653L21.982 16.6835C21.5645 14.166 19.6421 12.0775 17.0545 11.1653H21.571ZM22.6049 1.73058H48.6937L47.0341 9.45406L46.666 11.1653L42.7667 29.3123H24.6562L23.3066 11.1653L23.1791 9.45406L22.6049 1.73058ZM52.1635 11.1653C49.8537 11.9794 48.0737 13.7307 47.4214 15.888L48.4367 11.1653H52.1635ZM42.1724 42.7101L46.7298 42.0836L41.6949 55.9911L43.7276 55.4026L48.6451 41.8201L51.9293 41.3683L43.192 62.6549L36.9807 65.4173L42.1724 42.7101ZM61.0412 19.1702L60.7891 19.7831C59.8454 21.6847 57.6423 23.0222 55.0812 23.0222C51.663 23.0222 48.8813 20.6401 48.8813 17.7124C48.8813 14.784 51.663 12.4018 55.0812 12.4018C58.4994 12.4018 61.2803 14.784 61.2803 17.7124C61.2803 18.2179 61.1958 18.7069 61.0412 19.1702ZM55.0812 24.7528C56.5726 24.7528 57.9695 24.3848 59.1624 23.7461L56.8783 29.3123H44.5374L47.2045 16.8997C47.1694 17.1661 47.1508 17.4374 47.1508 17.7124C47.1508 21.5945 50.7086 24.7528 55.0812 24.7528ZM14.1368 24.7528C18.4736 24.7528 22.0078 21.6454 22.065 17.8069L22.9214 29.3123H10.3434L8.98158 23.058C10.3692 24.1134 12.1706 24.7528 14.1368 24.7528ZM7.93766 17.7124C7.93766 14.784 10.7186 12.4018 14.1368 12.4018C17.555 12.4018 20.3359 14.784 20.3359 17.7124C20.3359 20.6401 17.555 23.0222 14.1368 23.0222C10.7186 23.0222 7.93766 20.6401 7.93766 17.7124ZM19.8612 73.0319L13.99 46.0638L17.323 45.6858L19.738 60.7862L21.3884 60.2692L19.0249 45.4924L23.5271 44.9812L25.6644 70.4507L19.8612 73.0319ZM36.8619 51.1395C37.1067 49.7734 36.96 48.4037 36.438 47.1779C35.6218 45.2612 34.0974 44.2058 32.147 44.2058C30.1243 44.2058 28.5663 45.2798 27.6405 47.3118C27.1458 48.398 26.9152 49.6323 26.9746 50.881L27.8539 69.477L27.3197 69.7147L25.0851 43.0824L13.6241 44.3826L10.7157 31.0235H56.1752L52.6804 39.5375L40.7676 41.1764L35.0268 66.2865L34.0752 66.7096L36.8619 51.1395ZM29.5322 68.7309L28.9214 69.0023L28.2563 51.0557C28.2097 50.0777 28.5147 48.4438 28.8978 47.6039C29.5429 46.1884 30.6556 45.4366 31.9716 45.6858C33.1959 45.917 33.7881 46.7282 34.3415 48.0278C34.7325 48.9464 34.5463 50.3892 34.3609 51.4259L31.4138 67.8939L29.5322 68.7309ZM66.2243 11.1653V52.4104L45.4803 61.6368L62.3837 20.4568C62.4896 20.2348 62.5834 20.0072 62.6636 19.7745L62.665 19.7709V19.7702C62.8899 19.1193 63.0109 18.4284 63.0109 17.7124C63.0109 14.7439 60.9316 12.1992 57.9982 11.1653H66.2243ZM48.804 9.45406L50.8353 0H20.7411L21.4443 9.45406H-0.00921631V78.9733H67.9355V9.45406H48.804Z" fill="black"/>
</svg>
